<svg aria-hidden="true" style="position:absolute;width:0;height:0;overflow:hidden" xmlns="http://www.w3.org/2000/svg">
  <defs>
    <symbol id="icon-akar-icons_instagram-fill-1" viewBox="0 0 32 32">
      <path d="M9.957 1.422c1.565-.072 2.063-.088 6.049-.088s4.484.017 6.047.088c1.563.071 2.63.32 3.564.682.978.369 1.865.947 2.598 1.694.747.732 1.323 1.618 1.691 2.597.363.934.611 2.001.683 3.561.072 1.567.088 2.066.088 6.05 0 3.985-.017 4.484-.088 6.049-.071 1.561-.32 2.628-.683 3.561-.389 1.017-.964 1.884-1.69 2.599l-.001.001c-.734.747-1.621 1.323-2.598 1.691-.934.363-2.001.611-3.561.683-1.566.072-2.065.088-6.05.088s-4.484-.017-6.049-.088c-1.561-.071-2.628-.32-3.561-.683-1.017-.389-1.884-.964-2.599-1.69l-.001-.001c-.728-.715-1.303-1.581-1.676-2.549l-.017-.049c-.361-.934-.61-2.001-.682-3.561-.072-1.567-.088-2.066-.088-6.05 0-3.985.017-4.484.088-6.047s.32-2.63.682-3.564c.39-1.017.966-1.884 1.693-2.597l.001-.001c.714-.728 1.581-1.303 2.548-1.676l.049-.017c.934-.361 2.001-.61 3.561-.682h.001zm11.977 2.641c-1.547-.071-2.011-.085-5.929-.085s-4.382.015-5.929.085c-1.431.065-2.207.304-2.725.505-.684.267-1.174.583-1.687 1.096-.475.462-.848 1.026-1.086 1.656l-.01.031c-.201.518-.44 1.294-.505 2.725-.071 1.547-.085 2.011-.085 5.929s.015 4.382.085 5.929c.065 1.431.304 2.207.505 2.725.235.636.61 1.214 1.096 1.687.473.487 1.051.862 1.687 1.096.518.201 1.294.44 2.725.506 1.547.071 2.01.085 5.929.085s4.382-.015 5.929-.085c1.431-.065 2.207-.304 2.725-.506.684-.267 1.174-.583 1.687-1.096.487-.474.862-1.051 1.096-1.687.201-.518.44-1.294.506-2.725.071-1.547.085-2.011.085-5.929s-.015-4.382-.085-5.929c-.065-1.431-.304-2.207-.506-2.725-.267-.684-.583-1.174-1.096-1.687-.462-.475-1.026-.848-1.656-1.086l-.031-.01c-.518-.201-1.294-.44-2.725-.505zm-7.802 16.466c.556.238 1.202.376 1.881.376.505 0 .993-.077 1.451-.219l-.035.009c1.109-.342 2.025-1.036 2.642-1.948l.011-.017c.517-.764.825-1.705.825-2.719 0-.17-.009-.339-.026-.505l.002.021c-.12-1.174-.638-2.208-1.415-2.982-.886-.885-2.109-1.433-3.46-1.433-.169 0-.336.009-.501.025l.021-.002c-2.242.228-4.024 1.938-4.358 4.125l-.003.027c-.034.216-.053.465-.053.719 0 .507.077.995.22 1.455l-.009-.035c.438 1.414 1.46 2.532 2.777 3.09l.032.012zm-3.459-9.856c1.365-1.365 3.25-2.209 5.333-2.209 1.041 0 2.033.211 2.935.593l-.049-.019c.952.4 1.764.952 2.447 1.635.682.682 1.235 1.495 1.616 2.397l.019.049c.363.853.574 1.845.574 2.886 0 1.041-.211 2.033-.593 2.935l.019-.049c-.4.952-.952 1.764-1.635 2.447-1.414 1.414-3.333 2.209-5.333 2.209s-3.918-.795-5.333-2.209c-1.414-1.414-2.209-3.333-2.209-5.333 0-2.082.844-3.968 2.209-5.333zM25.22 9.587c.17-.16.308-.353.404-.568l.005-.011c.096-.218.147-.454.151-.692V8.29c0-.242-.048-.472-.135-.682l.004.012c-.095-.23-.227-.426-.391-.591-.323-.323-.769-.522-1.261-.522-.511 0-.971.215-1.296.559l-.001.001c-.301.319-.486.749-.486 1.224v.027-.001c.007.483.205.918.522 1.235.328.328.771.515 1.235.522h.026c.474 0 .905-.185 1.224-.487l-.001.001z"/>
    </symbol>
    <symbol id="icon-jam_facebook-square-1" viewBox="0 0 32 32">
      <path d="M14.266 11.92v1.837h-1.344v2.245h1.344v6.673h2.764v-6.673h1.854s.175-1.076.259-2.254h-2.102v-1.534c0-.231.301-.539.6-.539h1.505V9.337h-2.047c-2.9 0-2.832 2.247-2.832 2.584z"/>
      <path d="M8.003 5.335c-.737 0-1.404.299-1.886.781-.483.483-.781 1.15-.781 1.886v16.006c0 1.473 1.194 2.668 2.668 2.668H24.01c.707 0 1.386-.281 1.886-.781s.781-1.179.781-1.886V8.003c0-1.473-1.194-2.668-2.668-2.668H8.003zm0-2.667h16.006c1.415 0 2.772.562 3.773 1.563.965.965 1.563 2.299 1.563 3.772v16.006c0 1.473-.597 2.807-1.563 3.772-.965.965-2.299 1.563-3.772 1.563H8.004c-1.473 0-2.807-.597-3.772-1.563-.965-.965-1.563-2.299-1.563-3.772V8.003c0-2.947 2.389-5.335 5.335-5.335z"/>
    </symbol>
    <symbol id="icon-la_telegram-plane" viewBox="0 0 32 32">
      <path d="M26.079 3.997c-.342.026-.66.105-.953.23l.019-.007h-.004c-.285.113-1.641.683-3.701 1.548l-7.385 3.11c-5.299 2.231-10.508 4.428-10.508 4.428l.062-.024s-.359.118-.734.375c-.234.15-.429.34-.582.56l-.004.007c-.184.27-.332.683-.277 1.11.09.722.558 1.155.894 1.395.34.242.664.355.664.355h.008l4.885 1.646c.219.703 1.489 4.877 1.794 5.838.18.574.355.933.574 1.207.106.14.23.257.379.351.071.042.152.078.238.104l.008.002-.05-.012c.015.004.027.016.038.02.04.011.067.015.118.023.773.234 1.395-.246 1.395-.246l.035-.028 2.884-2.626 4.834 3.708.11.047c1.007.442 2.028.196 2.567-.238.543-.437.754-.996.754-.996l.035-.09 3.735-19.136c.106-.472.133-.914.016-1.343-.126-.443-.404-.808-.774-1.043l-.007-.004c-.277-.171-.613-.272-.973-.272-.033 0-.066.001-.099.003h.005zm-.101 2.051c-.004.063.008.056-.02.177v.011l-3.7 18.937c-.016.027-.043.086-.117.145-.078.062-.14.101-.465-.028l-5.912-4.533-3.571 3.255.75-4.792 9.659-9.003c.398-.37.265-.448.265-.448.028-.454-.601-.133-.601-.133l-12.18 7.546-.004-.02-5.853-1.973c.012-.004.022-.008.031-.013l-.001.001.032-.016.031-.011s5.213-2.197 10.512-4.428c2.653-1.117 5.326-2.243 7.382-3.111 1.219-.513 2.44-1.023 3.661-1.531.082-.032.043-.032.102-.032v-.001z"/>
    </symbol>
    <symbol id="icon-fluent_phone-24-regular-1" viewBox="0 0 32 32">
      <path d="M21.007 2.668c.796 0 1.559.316 2.122.879s.879 1.326.879 2.122v20.674c0 .796-.316 1.559-.879 2.122-.543.543-1.293.879-2.122.879H11.003c-.829 0-1.579-.336-2.122-.879-.543-.543-.879-1.293-.879-2.122V5.669c0-1.657 1.344-3.001 3.001-3.001h10.004zm0 2H11.003c-.552 0-1 .448-1 1v20.674c0 .552.448 1 1 1h10.004c.265 0 .52-.105.707-.293.181-.181.293-.431.293-.707V5.668c0-.276-.112-.526-.293-.707-.181-.181-.431-.293-.707-.293zm-3.335 18.674h.001c.276 0 .525.112.706.292.181.181.294.431.294.707v.001c0 .276-.112.525-.292.706-.181.181-.431.294-.707.294l-3.335.005h-.001c-.276 0-.525-.112-.706-.292-.181-.181-.294-.431-.294-.707v-.001c0-.276.112-.525.292-.706.181-.181.431-.294.707-.294l3.335-.005z"/>
    </symbol>
  </defs>
</svg>
