<svg width="24" height="24" fill="none" xmlns="http://www.w3.org/2000/svg">
  <path d="M19.5525 2.99691a2.23085 2.23085 0 0 0-.6998.16725h-.003c-.2137.08475-1.23.51225-2.775 1.16025l-5.5365 2.33175c-3.97273 1.6725-7.87798 3.3195-7.87798 3.3195l.0465-.018s-.26925.08854-.5505.28124a1.52196 1.52196 0 0 0-.4395.4253c-.138.2025-.249.5122-.20775.8325.0675.5415.4185.8662.6705 1.0455.255.1815.498.2662.498.2662h.006l3.66225 1.2338c.16425.5272 1.116 3.6562 1.34475 4.377.135.4305.26625.6997.4305.9052.0795.105.1725.1928.28425.2633a.84276.84276 0 0 0 .1845.0795l-.0375-.009c.01125.003.02025.012.0285.015.03.0082.05025.0112.0885.0172.57975.1755 1.0455-.1845 1.0455-.1845l.02625-.021 2.16223-1.9687 3.624 2.7802.0825.0353c.7553.3315 1.5203.147 1.9245-.1785.4073-.3278.5655-.747.5655-.747l.0263-.0675 2.8005-14.34679c.0795-.354.0997-.6855.012-1.00725a1.35546 1.35546 0 0 0-.5858-.78525 1.40386 1.40386 0 0 0-.8002-.2025Zm-.0758 1.5375c-.003.04725.006.042-.015.13275v.00825L16.6875 18.8729c-.012.0203-.0323.0645-.0878.1088-.0585.0465-.105.0757-.3487-.021l-4.4325-3.3983-2.67753 2.4405.5625-3.5925 7.24203-6.74999c.2985-.2775.1987-.336.1987-.336.021-.3405-.4507-.09975-.4507-.09975L7.56147 12.8819l-.003-.015-4.377-1.4737v-.003l-.01125-.0023a.18514.18514 0 0 0 .0225-.009l.024-.012.02325-.0082S7.14822 9.71166 11.121 8.03916c1.989-.83775 3.993-1.6815 5.5342-2.3325a608.86412 608.86412 0 0 1 2.745-1.1475c.0615-.024.0323-.024.0765-.024v-.00075Z" fill="#F3C653" fill-opacity=".7"/>
</svg>
